<svg xmlns="http://www.w3.org/2000/svg" viewBox="0 0 320 200">
  <defs>
    <linearGradient id="bg" x1="0%" y1="0%" x2="0%" y2="100%">
      <stop offset="0%" style="stop-color:#F5F7FF"/>
      <stop offset="100%" style="stop-color:#E4ECF9"/>
    </linearGradient>
  </defs>

  <rect width="320" height="200" fill="url(#bg)" rx="16"/>

  <!-- Bricks -->
  <g>
    <rect x="38" y="32" width="36" height="14" rx="4" fill="#C7D2FE" stroke="#818CF8"/>
    <rect x="80" y="32" width="36" height="14" rx="4" fill="#FBC8A8" stroke="#F59E0B"/>
    <rect x="122" y="32" width="36" height="14" rx="4" fill="#BBF7D0" stroke="#22C55E"/>
    <rect x="164" y="32" width="36" height="14" rx="4" fill="#C7D2FE" stroke="#818CF8"/>
    <rect x="206" y="32" width="36" height="14" rx="4" fill="#FBC8A8" stroke="#F59E0B"/>
    <rect x="248" y="32" width="36" height="14" rx="4" fill="#BBF7D0" stroke="#22C55E"/>

    <rect x="38" y="52" width="36" height="14" rx="4" fill="#FBC8A8" stroke="#F59E0B"/>
    <rect x="80" y="52" width="36" height="14" rx="4" fill="#BBF7D0" stroke="#22C55E"/>
    <rect x="122" y="52" width="36" height="14" rx="4" fill="#C7D2FE" stroke="#818CF8"/>
    <rect x="164" y="52" width="36" height="14" rx="4" fill="#FBC8A8" stroke="#F59E0B"/>
    <rect x="206" y="52" width="36" height="14" rx="4" fill="#BBF7D0" stroke="#22C55E"/>
    <rect x="248" y="52" width="36" height="14" rx="4" fill="#C7D2FE" stroke="#818CF8"/>

    <rect x="38" y="72" width="36" height="14" rx="4" fill="#BBF7D0" stroke="#22C55E"/>
    <rect x="80" y="72" width="36" height="14" rx="4" fill="#C7D2FE" stroke="#818CF8"/>
    <rect x="122" y="72" width="36" height="14" rx="4" fill="#FBC8A8" stroke="#F59E0B"/>
    <rect x="164" y="72" width="36" height="14" rx="4" fill="#BBF7D0" stroke="#22C55E"/>
    <rect x="206" y="72" width="36" height="14" rx="4" fill="#C7D2FE" stroke="#818CF8"/>
    <rect x="248" y="72" width="36" height="14" rx="4" fill="#FBC8A8" stroke="#F59E0B"/>
  </g>

  <!-- Paddle -->
  <rect x="120" y="164" width="80" height="10" rx="5" fill="#1E293B" stroke="#0F172A"/>
  <rect x="128" y="166" width="64" height="2" rx="1" fill="rgba(255,255,255,0.25)"/>

  <!-- Ball -->
  <circle cx="204" cy="144" r="6" fill="#F8FAFC" stroke="#475569" stroke-width="2"/>
  <circle cx="202" cy="142" r="2.5" fill="rgba(255,255,255,0.75)"/>
</svg>
